<svg width="180" height="24" viewBox="0 0 180 24" fill="none" xmlns="http://www.w3.org/2000/svg">
<path d="M10.0029 22.9701H14.4384L16.6878 13.9702L29.5032 22.9701L23.503 0.144043H16.0031L10.0029 22.9701ZM16.6878 13.9702L19.4596 2.85041H20.0465L22.8183 13.9702H16.6878Z" fill="#D4D4D8"/>
<path d="M0.44873 22.9701H4.88418L10.7849 0.144043H6.44885L0.44873 22.9701Z" fill="#D83338"/>
<path d="M43.0985 23.272C46.977 23.272 50.3995 20.273 50.3995 14.9931V14.4717C50.3995 9.19128 47.0095 6.19285 43.0985 6.19285C40.1649 6.19285 38.7635 7.36593 38.0788 8.50712H37.4925V0H33.3853V22.8155H37.427V20.8598H38.0139C38.7635 22.0984 40.1649 23.272 43.0985 23.272ZM41.86 19.6867C39.3504 19.6867 37.427 18.0241 37.427 14.8953V14.5691C37.427 11.4402 39.3174 9.7782 41.86 9.7782C44.402 9.7782 46.2928 11.4402 46.2928 14.5691V14.8953C46.2928 18.0241 44.3695 19.6867 41.86 19.6867ZM54.1801 22.8155H58.2873V13.6242C58.2873 11.3423 59.7866 10.2341 61.8722 10.2341H63.8933V6.58383H61.9376C60.4383 6.58383 59.2647 7.17072 58.8088 8.4742H58.2219V6.64926H54.1801V22.8155ZM71.7158 23.272C75.1054 23.272 76.1157 21.4466 76.4094 20.6315H77.0285V20.6645C77.0285 21.968 78.2018 22.8155 79.7989 22.8155H82.5367V19.4259H81.2332C80.6464 19.4259 80.3203 19.0998 80.3203 18.4481V12.4181C80.3203 8.3763 77.6479 6.19285 73.4108 6.19285C69.2062 6.19285 67.0876 8.31139 66.305 10.7561L70.0862 12.027C70.3793 10.5602 71.2917 9.51748 73.3454 9.51748C75.4314 9.51748 76.3439 10.6256 76.3439 12.1249V13.0374H71.911C68.2607 13.0374 65.6533 14.7649 65.6533 18.0895C65.6533 21.4142 68.2608 23.272 71.7158 23.272ZM72.4329 19.9474C70.6725 19.9474 69.76 19.1323 69.76 17.9592C69.76 16.7855 70.6725 16.1013 72.2047 16.1013H76.3439V16.427C76.3439 18.5785 74.7143 19.9474 72.4329 19.9474ZM90.5549 23.272C93.9444 23.272 94.9548 21.4466 95.2484 20.6315H95.8677V20.6645C95.8677 21.968 97.0408 22.8155 98.638 22.8155H101.376V19.4259H100.072C99.4855 19.4259 99.1594 19.0998 99.1594 18.4481V12.4181C99.1594 8.3763 96.487 6.19285 92.25 6.19285C88.0453 6.19285 85.9268 8.31139 85.1442 10.7561L88.9253 12.027C89.2185 10.5602 90.1309 9.51748 92.1845 9.51748C94.2706 9.51748 95.183 10.6256 95.183 12.1249V13.0374H90.7502C87.0999 13.0374 84.4924 14.7649 84.4924 18.0895C84.4924 21.4142 87.0999 23.272 90.5549 23.272ZM91.2721 19.9474C89.5116 19.9474 88.5992 19.1323 88.5992 17.9592C88.5992 16.7855 89.5116 16.1013 91.0438 16.1013H95.183V16.427C95.183 18.5785 93.5534 19.9474 91.2721 19.9474ZM111.74 23.272C116.564 23.272 120.215 20.208 120.215 14.9931V14.4717C120.215 9.25672 116.564 6.19285 111.74 6.19285C106.917 6.19285 103.266 9.25672 103.266 14.4717V14.9931C103.266 20.208 106.917 23.272 111.74 23.272ZM111.74 19.6212C109.231 19.6212 107.373 17.9267 107.373 14.8953V14.5691C107.373 11.5381 109.198 9.84302 111.74 9.84302C114.283 9.84302 116.108 11.5381 116.108 14.5691V14.8953C116.108 17.9267 114.25 19.6212 111.74 19.6212ZM123.214 22.8155H132.601C138.728 22.8155 141.988 19.6866 141.988 13.5587V9.25676C141.988 3.12887 138.728 0 132.601 0H123.214V3.78064H126.212V19.0344H123.214V22.8155ZM130.514 18.904V3.91099H132.665C136.12 3.91099 137.685 5.80176 137.685 9.1264V13.6891C137.685 17.0137 136.12 18.904 132.665 18.904H130.514ZM153.069 23.272C157.502 23.272 159.425 20.7618 160.337 19.0344L156.98 17.2744C156.426 18.513 155.481 19.6867 153.2 19.6867C150.918 19.6867 149.191 18.1544 149.093 15.9385H160.859V14.5366C160.859 9.58234 157.763 6.19285 153.004 6.19285C148.18 6.19285 144.921 9.45199 144.921 14.5366V14.9277C144.921 20.0123 148.213 23.272 153.069 23.272ZM149.125 12.8745C149.418 11.0167 150.755 9.7782 152.971 9.7782C155.09 9.7782 156.491 11.0167 156.687 12.8745H149.125ZM167.443 22.8155H173.962L179.112 6.64926H174.744L170.995 19.817H170.409L166.66 6.64926H162.293L167.443 22.8155Z" fill="#D4D4D8"/>
</svg>
